<?xml version="1.0" encoding="utf-8" standalone="no"?>
<!DOCTYPE svg PUBLIC "-//W3C//DTD SVG 1.1//EN"
  "http://www.w3.org/Graphics/SVG/1.1/DTD/svg11.dtd">
<!-- Created with matplotlib (http://matplotlib.org/) -->
<svg height="686.88pt" version="1.1" viewBox="0 0 688.32 686.88" width="688.32pt" xmlns="http://www.w3.org/2000/svg" xmlns:xlink="http://www.w3.org/1999/xlink">
 <defs>
  <style type="text/css">
*{stroke-linecap:butt;stroke-linejoin:round;}
  </style>
 </defs>
 <g id="figure_1">
  <g id="patch_1">
   <path d="M 0 686.88 
L 688.32 686.88 
L 688.32 0 
L 0 0 
z
" style="fill:#ffffff;"/>
  </g>
  <g id="axes_1">
   <g id="patch_2">
    <path d="M 86.04 611.3232 
L 619.488 611.3232 
L 619.488 82.4256 
L 86.04 82.4256 
z
" style="fill:#ffffff;"/>
   </g>
   <g id="matplotlib.axis_1">
    <g id="xtick_1">
     <g id="line2d_1">
      <defs>
       <path d="M 0 0 
L 0 3.5 
" id="mdc98e25a5e" style="stroke:#000000;stroke-width:0.8;"/>
      </defs>
      <g>
       <use style="stroke:#000000;stroke-width:0.8;" x="110.287636" xlink:href="#mdc98e25a5e" y="611.3232"/>
      </g>
     </g>
     <g id="text_1">
      <!-- 0 -->
      <defs>
       <path d="M 31.78125 66.40625 
Q 24.171875 66.40625 20.328125 58.90625 
Q 16.5 51.421875 16.5 36.375 
Q 16.5 21.390625 20.328125 13.890625 
Q 24.171875 6.390625 31.78125 6.390625 
Q 39.453125 6.390625 43.28125 13.890625 
Q 47.125 21.390625 47.125 36.375 
Q 47.125 51.421875 43.28125 58.90625 
Q 39.453125 66.40625 31.78125 66.40625 
z
M 31.78125 74.21875 
Q 44.046875 74.21875 50.515625 64.515625 
Q 56.984375 54.828125 56.984375 36.375 
Q 56.984375 17.96875 50.515625 8.265625 
Q 44.046875 -1.421875 31.78125 -1.421875 
Q 19.53125 -1.421875 13.0625 8.265625 
Q 6.59375 17.96875 6.59375 36.375 
Q 6.59375 54.828125 13.0625 64.515625 
Q 19.53125 74.21875 31.78125 74.21875 
z
" id="DejaVuSans-30"/>
      </defs>
      <g transform="translate(107.106386 625.921637)scale(0.1 -0.1)">
       <use xlink:href="#DejaVuSans-30"/>
      </g>
     </g>
    </g>
    <g id="xtick_2">
     <g id="line2d_2">
      <g>
       <use style="stroke:#000000;stroke-width:0.8;" x="208.257884" xlink:href="#mdc98e25a5e" y="611.3232"/>
      </g>
     </g>
     <g id="text_2">
      <!-- 20 -->
      <defs>
       <path d="M 19.1875 8.296875 
L 53.609375 8.296875 
L 53.609375 0 
L 7.328125 0 
L 7.328125 8.296875 
Q 12.9375 14.109375 22.625 23.890625 
Q 32.328125 33.6875 34.8125 36.53125 
Q 39.546875 41.84375 41.421875 45.53125 
Q 43.3125 49.21875 43.3125 52.78125 
Q 43.3125 58.59375 39.234375 62.25 
Q 35.15625 65.921875 28.609375 65.921875 
Q 23.96875 65.921875 18.8125 64.3125 
Q 13.671875 62.703125 7.8125 59.421875 
L 7.8125 69.390625 
Q 13.765625 71.78125 18.9375 73 
Q 24.125 74.21875 28.421875 74.21875 
Q 39.75 74.21875 46.484375 68.546875 
Q 53.21875 62.890625 53.21875 53.421875 
Q 53.21875 48.921875 51.53125 44.890625 
Q 49.859375 40.875 45.40625 35.40625 
Q 44.1875 33.984375 37.640625 27.21875 
Q 31.109375 20.453125 19.1875 8.296875 
z
" id="DejaVuSans-32"/>
      </defs>
      <g transform="translate(201.895384 625.921637)scale(0.1 -0.1)">
       <use xlink:href="#DejaVuSans-32"/>
       <use x="63.623047" xlink:href="#DejaVuSans-30"/>
      </g>
     </g>
    </g>
    <g id="xtick_3">
     <g id="line2d_3">
      <g>
       <use style="stroke:#000000;stroke-width:0.8;" x="306.228132" xlink:href="#mdc98e25a5e" y="611.3232"/>
      </g>
     </g>
     <g id="text_3">
      <!-- 40 -->
      <defs>
       <path d="M 37.796875 64.3125 
L 12.890625 25.390625 
L 37.796875 25.390625 
z
M 35.203125 72.90625 
L 47.609375 72.90625 
L 47.609375 25.390625 
L 58.015625 25.390625 
L 58.015625 17.1875 
L 47.609375 17.1875 
L 47.609375 0 
L 37.796875 0 
L 37.796875 17.1875 
L 4.890625 17.1875 
L 4.890625 26.703125 
z
" id="DejaVuSans-34"/>
      </defs>
      <g transform="translate(299.865632 625.921637)scale(0.1 -0.1)">
       <use xlink:href="#DejaVuSans-34"/>
       <use x="63.623047" xlink:href="#DejaVuSans-30"/>
      </g>
     </g>
    </g>
    <g id="xtick_4">
     <g id="line2d_4">
      <g>
       <use style="stroke:#000000;stroke-width:0.8;" x="404.19838" xlink:href="#mdc98e25a5e" y="611.3232"/>
      </g>
     </g>
     <g id="text_4">
      <!-- 60 -->
      <defs>
       <path d="M 33.015625 40.375 
Q 26.375 40.375 22.484375 35.828125 
Q 18.609375 31.296875 18.609375 23.390625 
Q 18.609375 15.53125 22.484375 10.953125 
Q 26.375 6.390625 33.015625 6.390625 
Q 39.65625 6.390625 43.53125 10.953125 
Q 47.40625 15.53125 47.40625 23.390625 
Q 47.40625 31.296875 43.53125 35.828125 
Q 39.65625 40.375 33.015625 40.375 
z
M 52.59375 71.296875 
L 52.59375 62.3125 
Q 48.875 64.0625 45.09375 64.984375 
Q 41.3125 65.921875 37.59375 65.921875 
Q 27.828125 65.921875 22.671875 59.328125 
Q 17.53125 52.734375 16.796875 39.40625 
Q 19.671875 43.65625 24.015625 45.921875 
Q 28.375 48.1875 33.59375 48.1875 
Q 44.578125 48.1875 50.953125 41.515625 
Q 57.328125 34.859375 57.328125 23.390625 
Q 57.328125 12.15625 50.6875 5.359375 
Q 44.046875 -1.421875 33.015625 -1.421875 
Q 20.359375 -1.421875 13.671875 8.265625 
Q 6.984375 17.96875 6.984375 36.375 
Q 6.984375 53.65625 15.1875 63.9375 
Q 23.390625 74.21875 37.203125 74.21875 
Q 40.921875 74.21875 44.703125 73.484375 
Q 48.484375 72.75 52.59375 71.296875 
z
" id="DejaVuSans-36"/>
      </defs>
      <g transform="translate(397.83588 625.921637)scale(0.1 -0.1)">
       <use xlink:href="#DejaVuSans-36"/>
       <use x="63.623047" xlink:href="#DejaVuSans-30"/>
      </g>
     </g>
    </g>
    <g id="xtick_5">
     <g id="line2d_5">
      <g>
       <use style="stroke:#000000;stroke-width:0.8;" x="502.168628" xlink:href="#mdc98e25a5e" y="611.3232"/>
      </g>
     </g>
     <g id="text_5">
      <!-- 80 -->
      <defs>
       <path d="M 31.78125 34.625 
Q 24.75 34.625 20.71875 30.859375 
Q 16.703125 27.09375 16.703125 20.515625 
Q 16.703125 13.921875 20.71875 10.15625 
Q 24.75 6.390625 31.78125 6.390625 
Q 38.8125 6.390625 42.859375 10.171875 
Q 46.921875 13.96875 46.921875 20.515625 
Q 46.921875 27.09375 42.890625 30.859375 
Q 38.875 34.625 31.78125 34.625 
z
M 21.921875 38.8125 
Q 15.578125 40.375 12.03125 44.71875 
Q 8.5 49.078125 8.5 55.328125 
Q 8.5 64.0625 14.71875 69.140625 
Q 20.953125 74.21875 31.78125 74.21875 
Q 42.671875 74.21875 48.875 69.140625 
Q 55.078125 64.0625 55.078125 55.328125 
Q 55.078125 49.078125 51.53125 44.71875 
Q 48 40.375 41.703125 38.8125 
Q 48.828125 37.15625 52.796875 32.3125 
Q 56.78125 27.484375 56.78125 20.515625 
Q 56.78125 9.90625 50.3125 4.234375 
Q 43.84375 -1.421875 31.78125 -1.421875 
Q 19.734375 -1.421875 13.25 4.234375 
Q 6.78125 9.90625 6.78125 20.515625 
Q 6.78125 27.484375 10.78125 32.3125 
Q 14.796875 37.15625 21.921875 38.8125 
z
M 18.3125 54.390625 
Q 18.3125 48.734375 21.84375 45.5625 
Q 25.390625 42.390625 31.78125 42.390625 
Q 38.140625 42.390625 41.71875 45.5625 
Q 45.3125 48.734375 45.3125 54.390625 
Q 45.3125 60.0625 41.71875 63.234375 
Q 38.140625 66.40625 31.78125 66.40625 
Q 25.390625 66.40625 21.84375 63.234375 
Q 18.3125 60.0625 18.3125 54.390625 
z
" id="DejaVuSans-38"/>
      </defs>
      <g transform="translate(495.806128 625.921637)scale(0.1 -0.1)">
       <use xlink:href="#DejaVuSans-38"/>
       <use x="63.623047" xlink:href="#DejaVuSans-30"/>
      </g>
     </g>
    </g>
    <g id="xtick_6">
     <g id="line2d_6">
      <g>
       <use style="stroke:#000000;stroke-width:0.8;" x="600.138876" xlink:href="#mdc98e25a5e" y="611.3232"/>
      </g>
     </g>
     <g id="text_6">
      <!-- 100 -->
      <defs>
       <path d="M 12.40625 8.296875 
L 28.515625 8.296875 
L 28.515625 63.921875 
L 10.984375 60.40625 
L 10.984375 69.390625 
L 28.421875 72.90625 
L 38.28125 72.90625 
L 38.28125 8.296875 
L 54.390625 8.296875 
L 54.390625 0 
L 12.40625 0 
z
" id="DejaVuSans-31"/>
      </defs>
      <g transform="translate(590.595126 625.921637)scale(0.1 -0.1)">
       <use xlink:href="#DejaVuSans-31"/>
       <use x="63.623047" xlink:href="#DejaVuSans-30"/>
       <use x="127.246094" xlink:href="#DejaVuSans-30"/>
      </g>
     </g>
    </g>
    <g id="text_7">
     <!-- Rundenzahl -->
     <defs>
      <path d="M 44.390625 34.1875 
Q 47.5625 33.109375 50.5625 29.59375 
Q 53.5625 26.078125 56.59375 19.921875 
L 66.609375 0 
L 56 0 
L 46.6875 18.703125 
Q 43.0625 26.03125 39.671875 28.421875 
Q 36.28125 30.8125 30.421875 30.8125 
L 19.671875 30.8125 
L 19.671875 0 
L 9.8125 0 
L 9.8125 72.90625 
L 32.078125 72.90625 
Q 44.578125 72.90625 50.734375 67.671875 
Q 56.890625 62.453125 56.890625 51.90625 
Q 56.890625 45.015625 53.6875 40.46875 
Q 50.484375 35.9375 44.390625 34.1875 
z
M 19.671875 64.796875 
L 19.671875 38.921875 
L 32.078125 38.921875 
Q 39.203125 38.921875 42.84375 42.21875 
Q 46.484375 45.515625 46.484375 51.90625 
Q 46.484375 58.296875 42.84375 61.546875 
Q 39.203125 64.796875 32.078125 64.796875 
z
" id="DejaVuSans-52"/>
      <path d="M 8.5 21.578125 
L 8.5 54.6875 
L 17.484375 54.6875 
L 17.484375 21.921875 
Q 17.484375 14.15625 20.5 10.265625 
Q 23.53125 6.390625 29.59375 6.390625 
Q 36.859375 6.390625 41.078125 11.03125 
Q 45.3125 15.671875 45.3125 23.6875 
L 45.3125 54.6875 
L 54.296875 54.6875 
L 54.296875 0 
L 45.3125 0 
L 45.3125 8.40625 
Q 42.046875 3.421875 37.71875 1 
Q 33.40625 -1.421875 27.6875 -1.421875 
Q 18.265625 -1.421875 13.375 4.4375 
Q 8.5 10.296875 8.5 21.578125 
z
M 31.109375 56 
z
" id="DejaVuSans-75"/>
      <path d="M 54.890625 33.015625 
L 54.890625 0 
L 45.90625 0 
L 45.90625 32.71875 
Q 45.90625 40.484375 42.875 44.328125 
Q 39.84375 48.1875 33.796875 48.1875 
Q 26.515625 48.1875 22.3125 43.546875 
Q 18.109375 38.921875 18.109375 30.90625 
L 18.109375 0 
L 9.078125 0 
L 9.078125 54.6875 
L 18.109375 54.6875 
L 18.109375 46.1875 
Q 21.34375 51.125 25.703125 53.5625 
Q 30.078125 56 35.796875 56 
Q 45.21875 56 50.046875 50.171875 
Q 54.890625 44.34375 54.890625 33.015625 
z
" id="DejaVuSans-6e"/>
      <path d="M 45.40625 46.390625 
L 45.40625 75.984375 
L 54.390625 75.984375 
L 54.390625 0 
L 45.40625 0 
L 45.40625 8.203125 
Q 42.578125 3.328125 38.25 0.953125 
Q 33.9375 -1.421875 27.875 -1.421875 
Q 17.96875 -1.421875 11.734375 6.484375 
Q 5.515625 14.40625 5.515625 27.296875 
Q 5.515625 40.1875 11.734375 48.09375 
Q 17.96875 56 27.875 56 
Q 33.9375 56 38.25 53.625 
Q 42.578125 51.265625 45.40625 46.390625 
z
M 14.796875 27.296875 
Q 14.796875 17.390625 18.875 11.75 
Q 22.953125 6.109375 30.078125 6.109375 
Q 37.203125 6.109375 41.296875 11.75 
Q 45.40625 17.390625 45.40625 27.296875 
Q 45.40625 37.203125 41.296875 42.84375 
Q 37.203125 48.484375 30.078125 48.484375 
Q 22.953125 48.484375 18.875 42.84375 
Q 14.796875 37.203125 14.796875 27.296875 
z
" id="DejaVuSans-64"/>
      <path d="M 56.203125 29.59375 
L 56.203125 25.203125 
L 14.890625 25.203125 
Q 15.484375 15.921875 20.484375 11.0625 
Q 25.484375 6.203125 34.421875 6.203125 
Q 39.59375 6.203125 44.453125 7.46875 
Q 49.3125 8.734375 54.109375 11.28125 
L 54.109375 2.78125 
Q 49.265625 0.734375 44.1875 -0.34375 
Q 39.109375 -1.421875 33.890625 -1.421875 
Q 20.796875 -1.421875 13.15625 6.1875 
Q 5.515625 13.8125 5.515625 26.8125 
Q 5.515625 40.234375 12.765625 48.109375 
Q 20.015625 56 32.328125 56 
Q 43.359375 56 49.78125 48.890625 
Q 56.203125 41.796875 56.203125 29.59375 
z
M 47.21875 32.234375 
Q 47.125 39.59375 43.09375 43.984375 
Q 39.0625 48.390625 32.421875 48.390625 
Q 24.90625 48.390625 20.390625 44.140625 
Q 15.875 39.890625 15.1875 32.171875 
z
" id="DejaVuSans-65"/>
      <path d="M 5.515625 54.6875 
L 48.1875 54.6875 
L 48.1875 46.484375 
L 14.40625 7.171875 
L 48.1875 7.171875 
L 48.1875 0 
L 4.296875 0 
L 4.296875 8.203125 
L 38.09375 47.515625 
L 5.515625 47.515625 
z
" id="DejaVuSans-7a"/>
      <path d="M 34.28125 27.484375 
Q 23.390625 27.484375 19.1875 25 
Q 14.984375 22.515625 14.984375 16.5 
Q 14.984375 11.71875 18.140625 8.90625 
Q 21.296875 6.109375 26.703125 6.109375 
Q 34.1875 6.109375 38.703125 11.40625 
Q 43.21875 16.703125 43.21875 25.484375 
L 43.21875 27.484375 
z
M 52.203125 31.203125 
L 52.203125 0 
L 43.21875 0 
L 43.21875 8.296875 
Q 40.140625 3.328125 35.546875 0.953125 
Q 30.953125 -1.421875 24.3125 -1.421875 
Q 15.921875 -1.421875 10.953125 3.296875 
Q 6 8.015625 6 15.921875 
Q 6 25.140625 12.171875 29.828125 
Q 18.359375 34.515625 30.609375 34.515625 
L 43.21875 34.515625 
L 43.21875 35.40625 
Q 43.21875 41.609375 39.140625 45 
Q 35.0625 48.390625 27.6875 48.390625 
Q 23 48.390625 18.546875 47.265625 
Q 14.109375 46.140625 10.015625 43.890625 
L 10.015625 52.203125 
Q 14.9375 54.109375 19.578125 55.046875 
Q 24.21875 56 28.609375 56 
Q 40.484375 56 46.34375 49.84375 
Q 52.203125 43.703125 52.203125 31.203125 
z
" id="DejaVuSans-61"/>
      <path d="M 54.890625 33.015625 
L 54.890625 0 
L 45.90625 0 
L 45.90625 32.71875 
Q 45.90625 40.484375 42.875 44.328125 
Q 39.84375 48.1875 33.796875 48.1875 
Q 26.515625 48.1875 22.3125 43.546875 
Q 18.109375 38.921875 18.109375 30.90625 
L 18.109375 0 
L 9.078125 0 
L 9.078125 75.984375 
L 18.109375 75.984375 
L 18.109375 46.1875 
Q 21.34375 51.125 25.703125 53.5625 
Q 30.078125 56 35.796875 56 
Q 45.21875 56 50.046875 50.171875 
Q 54.890625 44.34375 54.890625 33.015625 
z
" id="DejaVuSans-68"/>
      <path d="M 9.421875 75.984375 
L 18.40625 75.984375 
L 18.40625 0 
L 9.421875 0 
z
" id="DejaVuSans-6c"/>
     </defs>
     <g transform="translate(323.289781 639.599762)scale(0.1 -0.1)">
      <use xlink:href="#DejaVuSans-52"/>
      <use x="69.419922" xlink:href="#DejaVuSans-75"/>
      <use x="132.798828" xlink:href="#DejaVuSans-6e"/>
      <use x="196.177734" xlink:href="#DejaVuSans-64"/>
      <use x="259.654297" xlink:href="#DejaVuSans-65"/>
      <use x="321.177734" xlink:href="#DejaVuSans-6e"/>
      <use x="384.556641" xlink:href="#DejaVuSans-7a"/>
      <use x="437.046875" xlink:href="#DejaVuSans-61"/>
      <use x="498.326172" xlink:href="#DejaVuSans-68"/>
      <use x="561.705078" xlink:href="#DejaVuSans-6c"/>
     </g>
    </g>
   </g>
   <g id="matplotlib.axis_2">
    <g id="ytick_1">
     <g id="line2d_7">
      <defs>
       <path d="M 0 0 
L -3.5 0 
" id="m5b01c6809e" style="stroke:#000000;stroke-width:0.8;"/>
      </defs>
      <g>
       <use style="stroke:#000000;stroke-width:0.8;" x="86.04" xlink:href="#m5b01c6809e" y="587.2824"/>
      </g>
     </g>
     <g id="text_8">
      <!-- 0 -->
      <g transform="translate(72.6775 591.081619)scale(0.1 -0.1)">
       <use xlink:href="#DejaVuSans-30"/>
      </g>
     </g>
    </g>
    <g id="ytick_2">
     <g id="line2d_8">
      <g>
       <use style="stroke:#000000;stroke-width:0.8;" x="86.04" xlink:href="#m5b01c6809e" y="487.1124"/>
      </g>
     </g>
     <g id="text_9">
      <!-- 10 -->
      <g transform="translate(66.315 490.911619)scale(0.1 -0.1)">
       <use xlink:href="#DejaVuSans-31"/>
       <use x="63.623047" xlink:href="#DejaVuSans-30"/>
      </g>
     </g>
    </g>
    <g id="ytick_3">
     <g id="line2d_9">
      <g>
       <use style="stroke:#000000;stroke-width:0.8;" x="86.04" xlink:href="#m5b01c6809e" y="386.9424"/>
      </g>
     </g>
     <g id="text_10">
      <!-- 20 -->
      <g transform="translate(66.315 390.741619)scale(0.1 -0.1)">
       <use xlink:href="#DejaVuSans-32"/>
       <use x="63.623047" xlink:href="#DejaVuSans-30"/>
      </g>
     </g>
    </g>
    <g id="ytick_4">
     <g id="line2d_10">
      <g>
       <use style="stroke:#000000;stroke-width:0.8;" x="86.04" xlink:href="#m5b01c6809e" y="286.7724"/>
      </g>
     </g>
     <g id="text_11">
      <!-- 30 -->
      <defs>
       <path d="M 40.578125 39.3125 
Q 47.65625 37.796875 51.625 33 
Q 55.609375 28.21875 55.609375 21.1875 
Q 55.609375 10.40625 48.1875 4.484375 
Q 40.765625 -1.421875 27.09375 -1.421875 
Q 22.515625 -1.421875 17.65625 -0.515625 
Q 12.796875 0.390625 7.625 2.203125 
L 7.625 11.71875 
Q 11.71875 9.328125 16.59375 8.109375 
Q 21.484375 6.890625 26.8125 6.890625 
Q 36.078125 6.890625 40.9375 10.546875 
Q 45.796875 14.203125 45.796875 21.1875 
Q 45.796875 27.640625 41.28125 31.265625 
Q 36.765625 34.90625 28.71875 34.90625 
L 20.21875 34.90625 
L 20.21875 43.015625 
L 29.109375 43.015625 
Q 36.375 43.015625 40.234375 45.921875 
Q 44.09375 48.828125 44.09375 54.296875 
Q 44.09375 59.90625 40.109375 62.90625 
Q 36.140625 65.921875 28.71875 65.921875 
Q 24.65625 65.921875 20.015625 65.03125 
Q 15.375 64.15625 9.8125 62.3125 
L 9.8125 71.09375 
Q 15.4375 72.65625 20.34375 73.4375 
Q 25.25 74.21875 29.59375 74.21875 
Q 40.828125 74.21875 47.359375 69.109375 
Q 53.90625 64.015625 53.90625 55.328125 
Q 53.90625 49.265625 50.4375 45.09375 
Q 46.96875 40.921875 40.578125 39.3125 
z
" id="DejaVuSans-33"/>
      </defs>
      <g transform="translate(66.315 290.571619)scale(0.1 -0.1)">
       <use xlink:href="#DejaVuSans-33"/>
       <use x="63.623047" xlink:href="#DejaVuSans-30"/>
      </g>
     </g>
    </g>
    <g id="ytick_5">
     <g id="line2d_11">
      <g>
       <use style="stroke:#000000;stroke-width:0.8;" x="86.04" xlink:href="#m5b01c6809e" y="186.6024"/>
      </g>
     </g>
     <g id="text_12">
      <!-- 40 -->
      <g transform="translate(66.315 190.401619)scale(0.1 -0.1)">
       <use xlink:href="#DejaVuSans-34"/>
       <use x="63.623047" xlink:href="#DejaVuSans-30"/>
      </g>
     </g>
    </g>
    <g id="ytick_6">
     <g id="line2d_12">
      <g>
       <use style="stroke:#000000;stroke-width:0.8;" x="86.04" xlink:href="#m5b01c6809e" y="86.4324"/>
      </g>
     </g>
     <g id="text_13">
      <!-- 50 -->
      <defs>
       <path d="M 10.796875 72.90625 
L 49.515625 72.90625 
L 49.515625 64.59375 
L 19.828125 64.59375 
L 19.828125 46.734375 
Q 21.96875 47.46875 24.109375 47.828125 
Q 26.265625 48.1875 28.421875 48.1875 
Q 40.625 48.1875 47.75 41.5 
Q 54.890625 34.8125 54.890625 23.390625 
Q 54.890625 11.625 47.5625 5.09375 
Q 40.234375 -1.421875 26.90625 -1.421875 
Q 22.3125 -1.421875 17.546875 -0.640625 
Q 12.796875 0.140625 7.71875 1.703125 
L 7.71875 11.625 
Q 12.109375 9.234375 16.796875 8.0625 
Q 21.484375 6.890625 26.703125 6.890625 
Q 35.15625 6.890625 40.078125 11.328125 
Q 45.015625 15.765625 45.015625 23.390625 
Q 45.015625 31 40.078125 35.4375 
Q 35.15625 39.890625 26.703125 39.890625 
Q 22.75 39.890625 18.8125 39.015625 
Q 14.890625 38.140625 10.796875 36.28125 
z
" id="DejaVuSans-35"/>
      </defs>
      <g transform="translate(66.315 90.231619)scale(0.1 -0.1)">
       <use xlink:href="#DejaVuSans-35"/>
       <use x="63.623047" xlink:href="#DejaVuSans-30"/>
      </g>
     </g>
    </g>
    <g id="text_14">
     <!-- Punktestand -->
     <defs>
      <path d="M 19.671875 64.796875 
L 19.671875 37.40625 
L 32.078125 37.40625 
Q 38.96875 37.40625 42.71875 40.96875 
Q 46.484375 44.53125 46.484375 51.125 
Q 46.484375 57.671875 42.71875 61.234375 
Q 38.96875 64.796875 32.078125 64.796875 
z
M 9.8125 72.90625 
L 32.078125 72.90625 
Q 44.34375 72.90625 50.609375 67.359375 
Q 56.890625 61.8125 56.890625 51.125 
Q 56.890625 40.328125 50.609375 34.8125 
Q 44.34375 29.296875 32.078125 29.296875 
L 19.671875 29.296875 
L 19.671875 0 
L 9.8125 0 
z
" id="DejaVuSans-50"/>
      <path d="M 9.078125 75.984375 
L 18.109375 75.984375 
L 18.109375 31.109375 
L 44.921875 54.6875 
L 56.390625 54.6875 
L 27.390625 29.109375 
L 57.625 0 
L 45.90625 0 
L 18.109375 26.703125 
L 18.109375 0 
L 9.078125 0 
z
" id="DejaVuSans-6b"/>
      <path d="M 18.3125 70.21875 
L 18.3125 54.6875 
L 36.8125 54.6875 
L 36.8125 47.703125 
L 18.3125 47.703125 
L 18.3125 18.015625 
Q 18.3125 11.328125 20.140625 9.421875 
Q 21.96875 7.515625 27.59375 7.515625 
L 36.8125 7.515625 
L 36.8125 0 
L 27.59375 0 
Q 17.1875 0 13.234375 3.875 
Q 9.28125 7.765625 9.28125 18.015625 
L 9.28125 47.703125 
L 2.6875 47.703125 
L 2.6875 54.6875 
L 9.28125 54.6875 
L 9.28125 70.21875 
z
" id="DejaVuSans-74"/>
      <path d="M 44.28125 53.078125 
L 44.28125 44.578125 
Q 40.484375 46.53125 36.375 47.5 
Q 32.28125 48.484375 27.875 48.484375 
Q 21.1875 48.484375 17.84375 46.4375 
Q 14.5 44.390625 14.5 40.28125 
Q 14.5 37.15625 16.890625 35.375 
Q 19.28125 33.59375 26.515625 31.984375 
L 29.59375 31.296875 
Q 39.15625 29.25 43.1875 25.515625 
Q 47.21875 21.78125 47.21875 15.09375 
Q 47.21875 7.46875 41.1875 3.015625 
Q 35.15625 -1.421875 24.609375 -1.421875 
Q 20.21875 -1.421875 15.453125 -0.5625 
Q 10.6875 0.296875 5.421875 2 
L 5.421875 11.28125 
Q 10.40625 8.6875 15.234375 7.390625 
Q 20.0625 6.109375 24.8125 6.109375 
Q 31.15625 6.109375 34.5625 8.28125 
Q 37.984375 10.453125 37.984375 14.40625 
Q 37.984375 18.0625 35.515625 20.015625 
Q 33.0625 21.96875 24.703125 23.78125 
L 21.578125 24.515625 
Q 13.234375 26.265625 9.515625 29.90625 
Q 5.8125 33.546875 5.8125 39.890625 
Q 5.8125 47.609375 11.28125 51.796875 
Q 16.75 56 26.8125 56 
Q 31.78125 56 36.171875 55.265625 
Q 40.578125 54.546875 44.28125 53.078125 
z
" id="DejaVuSans-73"/>
     </defs>
     <g transform="translate(60.235312 378.129869)rotate(-90)scale(0.1 -0.1)">
      <use xlink:href="#DejaVuSans-50"/>
      <use x="60.287109" xlink:href="#DejaVuSans-75"/>
      <use x="123.666016" xlink:href="#DejaVuSans-6e"/>
      <use x="187.044922" xlink:href="#DejaVuSans-6b"/>
      <use x="244.955078" xlink:href="#DejaVuSans-74"/>
      <use x="284.164062" xlink:href="#DejaVuSans-65"/>
      <use x="345.6875" xlink:href="#DejaVuSans-73"/>
      <use x="397.787109" xlink:href="#DejaVuSans-74"/>
      <use x="436.996094" xlink:href="#DejaVuSans-61"/>
      <use x="498.275391" xlink:href="#DejaVuSans-6e"/>
      <use x="561.654297" xlink:href="#DejaVuSans-64"/>
     </g>
    </g>
   </g>
   <g id="line2d_13">
    <path clip-path="url(#p6668bbb5bc)" d="M 110.287636 577.2654 
L 115.186149 577.2654 
L 120.084661 567.2484 
L 124.983174 567.2484 
L 129.881686 567.2484 
L 134.780198 567.2484 
L 139.678711 567.2484 
L 144.577223 557.2314 
L 149.475736 557.2314 
L 154.374248 557.2314 
L 159.27276 547.2144 
L 164.171273 537.1974 
L 169.069785 527.1804 
L 173.968298 527.1804 
L 178.86681 527.1804 
L 183.765322 527.1804 
L 188.663835 527.1804 
L 193.562347 527.1804 
L 198.46086 517.1634 
L 203.359372 517.1634 
L 208.257884 507.1464 
L 213.156397 497.1294 
L 218.054909 497.1294 
L 222.953421 497.1294 
L 227.851934 487.1124 
L 232.750446 477.0954 
L 237.648959 467.0784 
L 242.547471 457.0614 
L 247.445983 447.0444 
L 252.344496 447.0444 
L 257.243008 437.0274 
L 262.141521 437.0274 
L 267.040033 427.0104 
L 271.938545 416.9934 
L 276.837058 416.9934 
L 281.73557 416.9934 
L 286.634083 416.9934 
L 291.532595 416.9934 
L 296.431107 406.9764 
L 301.32962 396.9594 
L 306.228132 396.9594 
L 311.126645 386.9424 
L 316.025157 386.9424 
L 320.923669 376.9254 
L 325.822182 376.9254 
L 330.720694 376.9254 
L 335.619207 366.9084 
L 340.517719 356.8914 
L 345.416231 346.8744 
L 350.314744 346.8744 
L 355.213256 346.8744 
L 360.111769 336.8574 
L 365.010281 326.8404 
L 369.908793 326.8404 
L 374.807306 316.8234 
L 379.705818 316.8234 
L 384.604331 306.8064 
L 389.502843 296.7894 
L 394.401355 296.7894 
L 399.299868 286.7724 
L 404.19838 276.7554 
L 409.096893 266.7384 
L 413.995405 256.7214 
L 418.893917 246.7044 
L 423.79243 246.7044 
L 428.690942 246.7044 
L 433.589455 246.7044 
L 438.487967 236.6874 
L 443.386479 236.6874 
L 448.284992 236.6874 
L 453.183504 236.6874 
L 458.082017 236.6874 
L 462.980529 236.6874 
L 467.879041 226.6704 
L 472.777554 226.6704 
L 477.676066 226.6704 
L 482.574579 226.6704 
L 487.473091 226.6704 
L 492.371603 226.6704 
L 497.270116 226.6704 
L 502.168628 226.6704 
L 507.06714 226.6704 
L 511.965653 226.6704 
L 516.864165 216.6534 
L 521.762678 216.6534 
L 526.66119 206.6364 
L 531.559702 206.6364 
L 536.458215 206.6364 
L 541.356727 206.6364 
L 546.25524 206.6364 
L 551.153752 206.6364 
L 556.052264 206.6364 
L 560.950777 206.6364 
L 565.849289 196.6194 
L 570.747802 196.6194 
L 575.646314 186.6024 
L 580.544826 186.6024 
L 585.443339 186.6024 
L 590.341851 186.6024 
L 595.240364 176.5854 
" style="fill:none;stroke:#1f77b4;stroke-linecap:square;stroke-width:1.5;"/>
   </g>
   <g id="line2d_14">
    <path clip-path="url(#p6668bbb5bc)" d="M 110.287636 577.2654 
L 115.186149 567.2484 
L 120.084661 567.2484 
L 124.983174 567.2484 
L 129.881686 557.2314 
L 134.780198 557.2314 
L 139.678711 547.2144 
L 144.577223 537.1974 
L 149.475736 537.1974 
L 154.374248 527.1804 
L 159.27276 517.1634 
L 164.171273 517.1634 
L 169.069785 517.1634 
L 173.968298 517.1634 
L 178.86681 507.1464 
L 183.765322 507.1464 
L 188.663835 507.1464 
L 193.562347 507.1464 
L 198.46086 507.1464 
L 203.359372 497.1294 
L 208.257884 497.1294 
L 213.156397 497.1294 
L 218.054909 497.1294 
L 222.953421 487.1124 
L 227.851934 487.1124 
L 232.750446 477.0954 
L 237.648959 477.0954 
L 242.547471 467.0784 
L 247.445983 457.0614 
L 252.344496 447.0444 
L 257.243008 437.0274 
L 262.141521 437.0274 
L 267.040033 427.0104 
L 271.938545 427.0104 
L 276.837058 427.0104 
L 281.73557 427.0104 
L 286.634083 427.0104 
L 291.532595 416.9934 
L 296.431107 416.9934 
L 301.32962 406.9764 
L 306.228132 406.9764 
L 311.126645 406.9764 
L 316.025157 396.9594 
L 320.923669 396.9594 
L 325.822182 396.9594 
L 330.720694 396.9594 
L 335.619207 396.9594 
L 340.517719 386.9424 
L 345.416231 376.9254 
L 350.314744 376.9254 
L 355.213256 366.9084 
L 360.111769 366.9084 
L 365.010281 366.9084 
L 369.908793 366.9084 
L 374.807306 356.8914 
L 379.705818 346.8744 
L 384.604331 346.8744 
L 389.502843 346.8744 
L 394.401355 336.8574 
L 399.299868 326.8404 
L 404.19838 326.8404 
L 409.096893 326.8404 
L 413.995405 326.8404 
L 418.893917 326.8404 
L 423.79243 316.8234 
L 428.690942 316.8234 
L 433.589455 316.8234 
L 438.487967 316.8234 
L 443.386479 306.8064 
L 448.284992 306.8064 
L 453.183504 306.8064 
L 458.082017 306.8064 
L 462.980529 306.8064 
L 467.879041 296.7894 
L 472.777554 296.7894 
L 477.676066 296.7894 
L 482.574579 286.7724 
L 487.473091 286.7724 
L 492.371603 286.7724 
L 497.270116 276.7554 
L 502.168628 266.7384 
L 507.06714 256.7214 
L 511.965653 256.7214 
L 516.864165 256.7214 
L 521.762678 256.7214 
L 526.66119 256.7214 
L 531.559702 246.7044 
L 536.458215 246.7044 
L 541.356727 246.7044 
L 546.25524 236.6874 
L 551.153752 236.6874 
L 556.052264 236.6874 
L 560.950777 236.6874 
L 565.849289 226.6704 
L 570.747802 226.6704 
L 575.646314 216.6534 
L 580.544826 206.6364 
L 585.443339 206.6364 
L 590.341851 196.6194 
L 595.240364 196.6194 
" style="fill:none;stroke:#ff7f0e;stroke-linecap:square;stroke-width:1.5;"/>
   </g>
   <g id="line2d_15">
    <path clip-path="url(#p6668bbb5bc)" d="M 110.287636 587.2824 
L 115.186149 587.2824 
L 120.084661 587.2824 
L 124.983174 587.2824 
L 129.881686 587.2824 
L 134.780198 577.2654 
L 139.678711 577.2654 
L 144.577223 577.2654 
L 149.475736 577.2654 
L 154.374248 577.2654 
L 159.27276 567.2484 
L 164.171273 557.2314 
L 169.069785 547.2144 
L 173.968298 537.1974 
L 178.86681 537.1974 
L 183.765322 537.1974 
L 188.663835 537.1974 
L 193.562347 527.1804 
L 198.46086 527.1804 
L 203.359372 517.1634 
L 208.257884 507.1464 
L 213.156397 497.1294 
L 218.054909 487.1124 
L 222.953421 487.1124 
L 227.851934 487.1124 
L 232.750446 487.1124 
L 237.648959 487.1124 
L 242.547471 477.0954 
L 247.445983 467.0784 
L 252.344496 467.0784 
L 257.243008 467.0784 
L 262.141521 457.0614 
L 267.040033 457.0614 
L 271.938545 457.0614 
L 276.837058 457.0614 
L 281.73557 447.0444 
L 286.634083 447.0444 
L 291.532595 447.0444 
L 296.431107 437.0274 
L 301.32962 427.0104 
L 306.228132 416.9934 
L 311.126645 416.9934 
L 316.025157 416.9934 
L 320.923669 416.9934 
L 325.822182 406.9764 
L 330.720694 396.9594 
L 335.619207 396.9594 
L 340.517719 386.9424 
L 345.416231 386.9424 
L 350.314744 386.9424 
L 355.213256 386.9424 
L 360.111769 386.9424 
L 365.010281 386.9424 
L 369.908793 386.9424 
L 374.807306 386.9424 
L 379.705818 386.9424 
L 384.604331 386.9424 
L 389.502843 376.9254 
L 394.401355 366.9084 
L 399.299868 366.9084 
L 404.19838 366.9084 
L 409.096893 366.9084 
L 413.995405 356.8914 
L 418.893917 356.8914 
L 423.79243 356.8914 
L 428.690942 356.8914 
L 433.589455 346.8744 
L 438.487967 346.8744 
L 443.386479 346.8744 
L 448.284992 336.8574 
L 453.183504 336.8574 
L 458.082017 326.8404 
L 462.980529 326.8404 
L 467.879041 316.8234 
L 472.777554 316.8234 
L 477.676066 316.8234 
L 482.574579 316.8234 
L 487.473091 316.8234 
L 492.371603 306.8064 
L 497.270116 306.8064 
L 502.168628 296.7894 
L 507.06714 296.7894 
L 511.965653 286.7724 
L 516.864165 286.7724 
L 521.762678 276.7554 
L 526.66119 276.7554 
L 531.559702 276.7554 
L 536.458215 276.7554 
L 541.356727 276.7554 
L 546.25524 276.7554 
L 551.153752 276.7554 
L 556.052264 276.7554 
L 560.950777 276.7554 
L 565.849289 276.7554 
L 570.747802 266.7384 
L 575.646314 256.7214 
L 580.544826 256.7214 
L 585.443339 246.7044 
L 590.341851 246.7044 
L 595.240364 236.6874 
" style="fill:none;stroke:#2ca02c;stroke-linecap:square;stroke-width:1.5;"/>
   </g>
   <g id="line2d_16">
    <path clip-path="url(#p6668bbb5bc)" d="M 110.287636 577.2654 
L 115.186149 567.2484 
L 120.084661 557.2314 
L 124.983174 557.2314 
L 129.881686 557.2314 
L 134.780198 557.2314 
L 139.678711 547.2144 
L 144.577223 547.2144 
L 149.475736 537.1974 
L 154.374248 537.1974 
L 159.27276 537.1974 
L 164.171273 527.1804 
L 169.069785 527.1804 
L 173.968298 527.1804 
L 178.86681 517.1634 
L 183.765322 517.1634 
L 188.663835 517.1634 
L 193.562347 507.1464 
L 198.46086 507.1464 
L 203.359372 497.1294 
L 208.257884 487.1124 
L 213.156397 487.1124 
L 218.054909 477.0954 
L 222.953421 467.0784 
L 227.851934 467.0784 
L 232.750446 467.0784 
L 237.648959 467.0784 
L 242.547471 457.0614 
L 247.445983 457.0614 
L 252.344496 457.0614 
L 257.243008 457.0614 
L 262.141521 457.0614 
L 267.040033 447.0444 
L 271.938545 447.0444 
L 276.837058 437.0274 
L 281.73557 437.0274 
L 286.634083 437.0274 
L 291.532595 427.0104 
L 296.431107 427.0104 
L 301.32962 416.9934 
L 306.228132 416.9934 
L 311.126645 406.9764 
L 316.025157 406.9764 
L 320.923669 396.9594 
L 325.822182 396.9594 
L 330.720694 396.9594 
L 335.619207 396.9594 
L 340.517719 386.9424 
L 345.416231 386.9424 
L 350.314744 386.9424 
L 355.213256 386.9424 
L 360.111769 376.9254 
L 365.010281 376.9254 
L 369.908793 366.9084 
L 374.807306 356.8914 
L 379.705818 356.8914 
L 384.604331 356.8914 
L 389.502843 346.8744 
L 394.401355 346.8744 
L 399.299868 336.8574 
L 404.19838 326.8404 
L 409.096893 326.8404 
L 413.995405 326.8404 
L 418.893917 316.8234 
L 423.79243 316.8234 
L 428.690942 316.8234 
L 433.589455 316.8234 
L 438.487967 306.8064 
L 443.386479 306.8064 
L 448.284992 306.8064 
L 453.183504 296.7894 
L 458.082017 296.7894 
L 462.980529 286.7724 
L 467.879041 276.7554 
L 472.777554 266.7384 
L 477.676066 266.7384 
L 482.574579 256.7214 
L 487.473091 256.7214 
L 492.371603 246.7044 
L 497.270116 246.7044 
L 502.168628 246.7044 
L 507.06714 246.7044 
L 511.965653 236.6874 
L 516.864165 236.6874 
L 521.762678 236.6874 
L 526.66119 236.6874 
L 531.559702 226.6704 
L 536.458215 226.6704 
L 541.356727 226.6704 
L 546.25524 226.6704 
L 551.153752 216.6534 
L 556.052264 206.6364 
L 560.950777 206.6364 
L 565.849289 196.6194 
L 570.747802 186.6024 
L 575.646314 176.5854 
L 580.544826 176.5854 
L 585.443339 166.5684 
L 590.341851 166.5684 
L 595.240364 166.5684 
" style="fill:none;stroke:#d62728;stroke-linecap:square;stroke-width:1.5;"/>
   </g>
   <g id="line2d_17">
    <path clip-path="url(#p6668bbb5bc)" d="M 110.287636 577.2654 
L 115.186149 577.2654 
L 120.084661 567.2484 
L 124.983174 557.2314 
L 129.881686 547.2144 
L 134.780198 537.1974 
L 139.678711 537.1974 
L 144.577223 527.1804 
L 149.475736 517.1634 
L 154.374248 517.1634 
L 159.27276 517.1634 
L 164.171273 507.1464 
L 169.069785 507.1464 
L 173.968298 507.1464 
L 178.86681 507.1464 
L 183.765322 497.1294 
L 188.663835 487.1124 
L 193.562347 477.0954 
L 198.46086 467.0784 
L 203.359372 467.0784 
L 208.257884 467.0784 
L 213.156397 457.0614 
L 218.054909 457.0614 
L 222.953421 457.0614 
L 227.851934 447.0444 
L 232.750446 437.0274 
L 237.648959 437.0274 
L 242.547471 427.0104 
L 247.445983 427.0104 
L 252.344496 416.9934 
L 257.243008 416.9934 
L 262.141521 416.9934 
L 267.040033 416.9934 
L 271.938545 416.9934 
L 276.837058 416.9934 
L 281.73557 416.9934 
L 286.634083 406.9764 
L 291.532595 406.9764 
L 296.431107 406.9764 
L 301.32962 396.9594 
L 306.228132 386.9424 
L 311.126645 376.9254 
L 316.025157 376.9254 
L 320.923669 376.9254 
L 325.822182 376.9254 
L 330.720694 376.9254 
L 335.619207 366.9084 
L 340.517719 356.8914 
L 345.416231 346.8744 
L 350.314744 336.8574 
L 355.213256 336.8574 
L 360.111769 336.8574 
L 365.010281 336.8574 
L 369.908793 336.8574 
L 374.807306 336.8574 
L 379.705818 336.8574 
L 384.604331 336.8574 
L 389.502843 336.8574 
L 394.401355 336.8574 
L 399.299868 336.8574 
L 404.19838 326.8404 
L 409.096893 316.8234 
L 413.995405 316.8234 
L 418.893917 316.8234 
L 423.79243 316.8234 
L 428.690942 306.8064 
L 433.589455 296.7894 
L 438.487967 296.7894 
L 443.386479 296.7894 
L 448.284992 296.7894 
L 453.183504 296.7894 
L 458.082017 286.7724 
L 462.980529 286.7724 
L 467.879041 276.7554 
L 472.777554 266.7384 
L 477.676066 256.7214 
L 482.574579 246.7044 
L 487.473091 236.6874 
L 492.371603 236.6874 
L 497.270116 226.6704 
L 502.168628 226.6704 
L 507.06714 226.6704 
L 511.965653 226.6704 
L 516.864165 226.6704 
L 521.762678 216.6534 
L 526.66119 206.6364 
L 531.559702 196.6194 
L 536.458215 186.6024 
L 541.356727 176.5854 
L 546.25524 166.5684 
L 551.153752 156.5514 
L 556.052264 146.5344 
L 560.950777 136.5174 
L 565.849289 136.5174 
L 570.747802 136.5174 
L 575.646314 126.5004 
L 580.544826 116.4834 
L 585.443339 116.4834 
L 590.341851 116.4834 
L 595.240364 106.4664 
" style="fill:none;stroke:#9467bd;stroke-linecap:square;stroke-width:1.5;"/>
   </g>
   <g id="patch_3">
    <path d="M 86.04 611.3232 
L 86.04 82.4256 
" style="fill:none;stroke:#000000;stroke-linecap:square;stroke-linejoin:miter;stroke-width:0.8;"/>
   </g>
   <g id="patch_4">
    <path d="M 619.488 611.3232 
L 619.488 82.4256 
" style="fill:none;stroke:#000000;stroke-linecap:square;stroke-linejoin:miter;stroke-width:0.8;"/>
   </g>
   <g id="patch_5">
    <path d="M 86.04 611.3232 
L 619.488 611.3232 
" style="fill:none;stroke:#000000;stroke-linecap:square;stroke-linejoin:miter;stroke-width:0.8;"/>
   </g>
   <g id="patch_6">
    <path d="M 86.04 82.4256 
L 619.488 82.4256 
" style="fill:none;stroke:#000000;stroke-linecap:square;stroke-linejoin:miter;stroke-width:0.8;"/>
   </g>
   <g id="legend_1">
    <g id="patch_7">
     <path d="M 93.04 163.816225 
L 169.250938 163.816225 
Q 171.250938 163.816225 171.250938 161.816225 
L 171.250938 89.4256 
Q 171.250938 87.4256 169.250938 87.4256 
L 93.04 87.4256 
Q 91.04 87.4256 91.04 89.4256 
L 91.04 161.816225 
Q 91.04 163.816225 93.04 163.816225 
z
" style="fill:#ffffff;opacity:0.8;stroke:#cccccc;stroke-linejoin:miter;"/>
    </g>
    <g id="line2d_18">
     <path d="M 95.04 95.524038 
L 115.04 95.524038 
" style="fill:none;stroke:#1f77b4;stroke-linecap:square;stroke-width:1.5;"/>
    </g>
    <g id="line2d_19"/>
    <g id="text_15">
     <!-- Spieler 1 -->
     <defs>
      <path d="M 53.515625 70.515625 
L 53.515625 60.890625 
Q 47.90625 63.578125 42.921875 64.890625 
Q 37.9375 66.21875 33.296875 66.21875 
Q 25.25 66.21875 20.875 63.09375 
Q 16.5 59.96875 16.5 54.203125 
Q 16.5 49.359375 19.40625 46.890625 
Q 22.3125 44.4375 30.421875 42.921875 
L 36.375 41.703125 
Q 47.40625 39.59375 52.65625 34.296875 
Q 57.90625 29 57.90625 20.125 
Q 57.90625 9.515625 50.796875 4.046875 
Q 43.703125 -1.421875 29.984375 -1.421875 
Q 24.8125 -1.421875 18.96875 -0.25 
Q 13.140625 0.921875 6.890625 3.21875 
L 6.890625 13.375 
Q 12.890625 10.015625 18.65625 8.296875 
Q 24.421875 6.59375 29.984375 6.59375 
Q 38.421875 6.59375 43.015625 9.90625 
Q 47.609375 13.234375 47.609375 19.390625 
Q 47.609375 24.75 44.3125 27.78125 
Q 41.015625 30.8125 33.5 32.328125 
L 27.484375 33.5 
Q 16.453125 35.6875 11.515625 40.375 
Q 6.59375 45.0625 6.59375 53.421875 
Q 6.59375 63.09375 13.40625 68.65625 
Q 20.21875 74.21875 32.171875 74.21875 
Q 37.3125 74.21875 42.625 73.28125 
Q 47.953125 72.359375 53.515625 70.515625 
z
" id="DejaVuSans-53"/>
      <path d="M 18.109375 8.203125 
L 18.109375 -20.796875 
L 9.078125 -20.796875 
L 9.078125 54.6875 
L 18.109375 54.6875 
L 18.109375 46.390625 
Q 20.953125 51.265625 25.265625 53.625 
Q 29.59375 56 35.59375 56 
Q 45.5625 56 51.78125 48.09375 
Q 58.015625 40.1875 58.015625 27.296875 
Q 58.015625 14.40625 51.78125 6.484375 
Q 45.5625 -1.421875 35.59375 -1.421875 
Q 29.59375 -1.421875 25.265625 0.953125 
Q 20.953125 3.328125 18.109375 8.203125 
z
M 48.6875 27.296875 
Q 48.6875 37.203125 44.609375 42.84375 
Q 40.53125 48.484375 33.40625 48.484375 
Q 26.265625 48.484375 22.1875 42.84375 
Q 18.109375 37.203125 18.109375 27.296875 
Q 18.109375 17.390625 22.1875 11.75 
Q 26.265625 6.109375 33.40625 6.109375 
Q 40.53125 6.109375 44.609375 11.75 
Q 48.6875 17.390625 48.6875 27.296875 
z
" id="DejaVuSans-70"/>
      <path d="M 9.421875 54.6875 
L 18.40625 54.6875 
L 18.40625 0 
L 9.421875 0 
z
M 9.421875 75.984375 
L 18.40625 75.984375 
L 18.40625 64.59375 
L 9.421875 64.59375 
z
" id="DejaVuSans-69"/>
      <path d="M 41.109375 46.296875 
Q 39.59375 47.171875 37.8125 47.578125 
Q 36.03125 48 33.890625 48 
Q 26.265625 48 22.1875 43.046875 
Q 18.109375 38.09375 18.109375 28.8125 
L 18.109375 0 
L 9.078125 0 
L 9.078125 54.6875 
L 18.109375 54.6875 
L 18.109375 46.1875 
Q 20.953125 51.171875 25.484375 53.578125 
Q 30.03125 56 36.53125 56 
Q 37.453125 56 38.578125 55.875 
Q 39.703125 55.765625 41.0625 55.515625 
z
" id="DejaVuSans-72"/>
      <path id="DejaVuSans-20"/>
     </defs>
     <g transform="translate(123.04 99.024038)scale(0.1 -0.1)">
      <use xlink:href="#DejaVuSans-53"/>
      <use x="63.476562" xlink:href="#DejaVuSans-70"/>
      <use x="126.953125" xlink:href="#DejaVuSans-69"/>
      <use x="154.736328" xlink:href="#DejaVuSans-65"/>
      <use x="216.259766" xlink:href="#DejaVuSans-6c"/>
      <use x="244.042969" xlink:href="#DejaVuSans-65"/>
      <use x="305.566406" xlink:href="#DejaVuSans-72"/>
      <use x="346.679688" xlink:href="#DejaVuSans-20"/>
      <use x="378.466797" xlink:href="#DejaVuSans-31"/>
     </g>
    </g>
    <g id="line2d_20">
     <path d="M 95.04 110.202163 
L 115.04 110.202163 
" style="fill:none;stroke:#ff7f0e;stroke-linecap:square;stroke-width:1.5;"/>
    </g>
    <g id="line2d_21"/>
    <g id="text_16">
     <!-- Spieler 2 -->
     <g transform="translate(123.04 113.702163)scale(0.1 -0.1)">
      <use xlink:href="#DejaVuSans-53"/>
      <use x="63.476562" xlink:href="#DejaVuSans-70"/>
      <use x="126.953125" xlink:href="#DejaVuSans-69"/>
      <use x="154.736328" xlink:href="#DejaVuSans-65"/>
      <use x="216.259766" xlink:href="#DejaVuSans-6c"/>
      <use x="244.042969" xlink:href="#DejaVuSans-65"/>
      <use x="305.566406" xlink:href="#DejaVuSans-72"/>
      <use x="346.679688" xlink:href="#DejaVuSans-20"/>
      <use x="378.466797" xlink:href="#DejaVuSans-32"/>
     </g>
    </g>
    <g id="line2d_22">
     <path d="M 95.04 124.880288 
L 115.04 124.880288 
" style="fill:none;stroke:#2ca02c;stroke-linecap:square;stroke-width:1.5;"/>
    </g>
    <g id="line2d_23"/>
    <g id="text_17">
     <!-- Spieler 3 -->
     <g transform="translate(123.04 128.380288)scale(0.1 -0.1)">
      <use xlink:href="#DejaVuSans-53"/>
      <use x="63.476562" xlink:href="#DejaVuSans-70"/>
      <use x="126.953125" xlink:href="#DejaVuSans-69"/>
      <use x="154.736328" xlink:href="#DejaVuSans-65"/>
      <use x="216.259766" xlink:href="#DejaVuSans-6c"/>
      <use x="244.042969" xlink:href="#DejaVuSans-65"/>
      <use x="305.566406" xlink:href="#DejaVuSans-72"/>
      <use x="346.679688" xlink:href="#DejaVuSans-20"/>
      <use x="378.466797" xlink:href="#DejaVuSans-33"/>
     </g>
    </g>
    <g id="line2d_24">
     <path d="M 95.04 139.558413 
L 115.04 139.558413 
" style="fill:none;stroke:#d62728;stroke-linecap:square;stroke-width:1.5;"/>
    </g>
    <g id="line2d_25"/>
    <g id="text_18">
     <!-- Spieler 4 -->
     <g transform="translate(123.04 143.058413)scale(0.1 -0.1)">
      <use xlink:href="#DejaVuSans-53"/>
      <use x="63.476562" xlink:href="#DejaVuSans-70"/>
      <use x="126.953125" xlink:href="#DejaVuSans-69"/>
      <use x="154.736328" xlink:href="#DejaVuSans-65"/>
      <use x="216.259766" xlink:href="#DejaVuSans-6c"/>
      <use x="244.042969" xlink:href="#DejaVuSans-65"/>
      <use x="305.566406" xlink:href="#DejaVuSans-72"/>
      <use x="346.679688" xlink:href="#DejaVuSans-20"/>
      <use x="378.466797" xlink:href="#DejaVuSans-34"/>
     </g>
    </g>
    <g id="line2d_26">
     <path d="M 95.04 154.236538 
L 115.04 154.236538 
" style="fill:none;stroke:#9467bd;stroke-linecap:square;stroke-width:1.5;"/>
    </g>
    <g id="line2d_27"/>
    <g id="text_19">
     <!-- Spieler 5 -->
     <g transform="translate(123.04 157.736538)scale(0.1 -0.1)">
      <use xlink:href="#DejaVuSans-53"/>
      <use x="63.476562" xlink:href="#DejaVuSans-70"/>
      <use x="126.953125" xlink:href="#DejaVuSans-69"/>
      <use x="154.736328" xlink:href="#DejaVuSans-65"/>
      <use x="216.259766" xlink:href="#DejaVuSans-6c"/>
      <use x="244.042969" xlink:href="#DejaVuSans-65"/>
      <use x="305.566406" xlink:href="#DejaVuSans-72"/>
      <use x="346.679688" xlink:href="#DejaVuSans-20"/>
      <use x="378.466797" xlink:href="#DejaVuSans-35"/>
     </g>
    </g>
   </g>
  </g>
 </g>
 <defs>
  <clipPath id="p6668bbb5bc">
   <rect height="528.8976" width="533.448" x="86.04" y="82.4256"/>
  </clipPath>
 </defs>
</svg>
